<?xml version="1.0" encoding="UTF-8"?><svg id="Layer_1" xmlns="http://www.w3.org/2000/svg" width="1.65in" height=".4in" viewBox="0 0 118.58 28.62"><path d="M3.49,6.26c-1.03,0-1.87-.3-2.52-.9-.65-.6-.97-1.34-.97-2.23S.32,1.5,.97,.9c.65-.6,1.49-.9,2.52-.9s1.87,.28,2.52,.85,.97,1.29,.97,2.18c0,.94-.32,1.71-.95,2.32-.64,.61-1.48,.92-2.54,.92ZM.68,28.33V8.96H6.3V28.33H.68Z" style="fill:#231f20;"/><path d="M11.92,28.33V3.13h12.31c3.17,0,5.55,.6,7.15,1.8,1.6,1.2,2.39,2.78,2.39,4.75,0,1.32-.32,2.47-.97,3.44-.65,.97-1.54,1.72-2.66,2.25-1.13,.53-2.42,.79-3.89,.79l.68-1.48c1.58,0,2.99,.26,4.21,.77,1.22,.52,2.18,1.28,2.86,2.29s1.03,2.24,1.03,3.71c0,2.16-.85,3.85-2.55,5.06-1.71,1.21-4.21,1.82-7.52,1.82H11.92Zm5.8-4.39h6.8c1.51,0,2.66-.25,3.44-.74,.78-.49,1.17-1.28,1.17-2.36s-.39-1.84-1.17-2.36c-.78-.52-1.93-.77-3.44-.77h-7.24v-4.25h6.23c1.42,0,2.5-.25,3.26-.74,.76-.49,1.13-1.24,1.13-2.25s-.38-1.72-1.13-2.21c-.76-.49-1.84-.74-3.26-.74h-5.8V23.94Z" style="fill:#231f20;"/><path d="M45.04,28.62c-1.51,0-2.81-.26-3.89-.77-1.08-.52-1.91-1.22-2.48-2.11-.58-.89-.86-1.88-.86-2.99s.28-2.16,.85-3.02,1.46-1.54,2.68-2.03c1.22-.49,2.82-.74,4.79-.74h5.15v3.28h-4.54c-1.32,0-2.23,.22-2.72,.65-.49,.43-.74,.97-.74,1.62,0,.72,.28,1.29,.85,1.71,.56,.42,1.34,.63,2.32,.63s1.78-.22,2.52-.67c.74-.44,1.28-1.1,1.62-1.96l.86,2.59c-.41,1.25-1.15,2.2-2.23,2.84s-2.47,.97-4.18,.97Zm5.9-.29v-3.78l-.36-.83v-6.77c0-1.2-.37-2.14-1.1-2.81-.73-.67-1.85-1.01-3.37-1.01-1.03,0-2.05,.16-3.04,.49-1,.32-1.84,.76-2.54,1.31l-2.02-3.92c1.06-.74,2.33-1.32,3.82-1.73,1.49-.41,3-.61,4.54-.61,2.95,0,5.24,.7,6.88,2.09,1.63,1.39,2.45,3.56,2.45,6.52v11.05h-5.26Z" style="fill:#231f20;"/><path d="M61.27,28.33V8.96h5.36v5.47l-.76-1.58c.58-1.37,1.5-2.41,2.77-3.11,1.27-.71,2.82-1.06,4.64-1.06v5.18c-.24-.02-.46-.04-.65-.05-.19-.01-.4-.02-.61-.02-1.54,0-2.78,.44-3.73,1.31s-1.42,2.24-1.42,4.09v9.14h-5.62Z" style="fill:#231f20;"/><path d="M76.64,28.33V8.96h5.36v5.47l-.76-1.58c.58-1.37,1.5-2.41,2.77-3.11,1.27-.71,2.82-1.06,4.64-1.06v5.18c-.24-.02-.46-.04-.65-.05-.19-.01-.4-.02-.61-.02-1.54,0-2.78,.44-3.73,1.31s-1.42,2.24-1.42,4.09v9.14h-5.62Z" style="fill:#231f20;"/><path d="M96.73,28.62c-1.51,0-2.81-.26-3.89-.77-1.08-.52-1.91-1.22-2.48-2.11-.58-.89-.86-1.88-.86-2.99s.28-2.16,.85-3.02,1.46-1.54,2.68-2.03c1.22-.49,2.82-.74,4.79-.74h5.15v3.28h-4.54c-1.32,0-2.23,.22-2.72,.65-.49,.43-.74,.97-.74,1.62,0,.72,.28,1.29,.85,1.71,.56,.42,1.34,.63,2.32,.63s1.78-.22,2.52-.67c.74-.44,1.28-1.1,1.62-1.96l.86,2.59c-.41,1.25-1.15,2.2-2.23,2.84s-2.47,.97-4.18,.97Zm5.9-.29v-3.78l-.36-.83v-6.77c0-1.2-.37-2.14-1.1-2.81-.73-.67-1.85-1.01-3.37-1.01-1.03,0-2.05,.16-3.04,.49-1,.32-1.84,.76-2.54,1.31l-2.02-3.92c1.06-.74,2.33-1.32,3.82-1.73,1.49-.41,3-.61,4.54-.61,2.95,0,5.24,.7,6.88,2.09,1.63,1.39,2.45,3.56,2.45,6.52v11.05h-5.26Z" style="fill:#231f20;"/><path d="M115.09,28.62c-.96,0-1.78-.33-2.47-.99s-1.03-1.51-1.03-2.54,.34-1.87,1.03-2.5c.68-.63,1.51-.95,2.47-.95s1.81,.32,2.48,.95c.67,.64,1.01,1.47,1.01,2.5s-.34,1.88-1.01,2.54c-.67,.66-1.5,.99-2.48,.99Z" style="fill:#231f20;"/></svg>